<?xml version="1.0" standalone="no"?>
<!DOCTYPE svg PUBLIC "-//W3C//DTD SVG 20010904//EN"
 "http://www.w3.org/TR/2001/REC-SVG-20010904/DTD/svg10.dtd">
<svg version="1.0" xmlns="http://www.w3.org/2000/svg"
 width="484.000000pt" height="484.000000pt" viewBox="0 0 484.000000 484.000000"
 preserveAspectRatio="xMidYMid meet">
<metadata>
Created by potrace 1.11, written by Peter Selinger 2001-2013
</metadata>
<g transform="translate(0.000000,484.000000) scale(0.100000,-0.100000)"
fill="#000000" stroke="none">
<path d="M1679 4493 c-1 -5 -1 -11 -1 -14 1 -10 -57 -8 -63 2 -4 5 -12 9 -18
9 -7 0 -6 -4 3 -10 12 -8 11 -10 -5 -10 -12 0 -27 6 -34 13 -9 7 -11 8 -7 1 4
-8 -6 -12 -29 -12 -23 0 -33 4 -29 12 5 7 2 7 -6 -1 -11 -10 -17 -10 -29 0 -9
7 -12 8 -8 1 9 -16 -75 -17 -85 -1 -6 9 -8 9 -8 0 0 -7 -5 -13 -11 -13 -5 0
-7 5 -4 11 4 6 -3 5 -14 -3 -18 -11 -23 -11 -31 2 -5 8 -10 10 -10 4 0 -15
-130 -16 -130 -1 0 8 -3 9 -8 2 -10 -15 -145 -16 -154 -1 -6 8 -8 8 -8 0 0
-15 -53 -15 -62 0 -6 8 -8 8 -8 -1 0 -7 -20 -12 -55 -12 -35 0 -55 5 -55 12 0
9 -2 9 -8 1 -10 -16 -112 -18 -112 -2 0 10 -2 10 -9 0 -5 -8 -21 -11 -44 -9
-20 2 -48 -1 -61 -8 -14 -7 -28 -10 -31 -7 -4 4 -6 3 -5 -3 4 -19 0 -36 -7
-32 -5 3 -8 -60 -8 -139 0 -79 2 -144 5 -144 3 0 5 -16 4 -35 -1 -19 2 -35 8
-35 5 0 7 -4 4 -8 -2 -4 -2 -13 2 -18 12 -18 85 -63 94 -58 4 3 8 1 8 -3 0 -5
25 -6 55 -3 30 3 55 3 55 -1 0 -3 11 -5 25 -4 14 2 25 -2 26 -8 5 -55 3 -127
-3 -128 -30 -5 -43 -1 -40 11 2 11 -2 10 -11 -2 -8 -10 -20 -18 -28 -18 -19
-1 -49 -25 -49 -39 0 -7 -6 -9 -12 -5 -10 6 -10 4 0 -7 13 -14 17 -33 5 -26
-5 3 -7 -14 -5 -36 10 -138 7 -232 -8 -245 -13 -10 -12 -11 5 -5 18 6 19 5 5
-12 -8 -10 -10 -16 -4 -12 8 4 11 -7 9 -37 -1 -35 1 -43 13 -38 10 3 13 1 8
-6 -3 -6 2 -19 13 -29 11 -10 21 -25 23 -33 2 -8 12 -24 23 -36 11 -11 21 -27
23 -35 2 -7 10 -18 18 -22 8 -4 14 -15 14 -22 0 -8 4 -15 8 -15 5 0 15 -12 23
-27 8 -16 20 -34 27 -42 7 -7 11 -20 8 -27 -3 -8 -1 -13 4 -11 11 3 61 -63 55
-73 -3 -5 2 -11 11 -14 8 -3 12 -10 9 -16 -3 -5 -1 -10 5 -10 6 0 8 -4 5 -10
-3 -6 1 -7 9 -4 9 3 16 1 16 -5 0 -6 6 -10 13 -8 6 1 11 -3 10 -8 -1 -6 7 -11
17 -11 10 0 16 4 14 8 -3 4 2 8 10 8 9 0 16 -4 16 -10 0 -5 5 -10 11 -10 5 0
7 5 3 12 -4 6 -3 8 3 5 7 -4 10 -387 9 -1156 -1 -725 3 -1149 9 -1148 5 1 10
-5 10 -13 0 -8 7 -14 14 -12 7 1 15 -7 18 -19 4 -16 8 -17 14 -7 7 10 9 10 9
1 0 -7 6 -13 13 -13 7 0 19 -9 27 -20 8 -11 19 -20 25 -20 6 0 17 -9 25 -19 7
-11 17 -18 22 -15 4 3 8 1 8 -5 0 -5 12 -16 28 -24 15 -7 26 -18 25 -25 -2 -6
4 -9 12 -6 10 4 15 0 15 -11 0 -9 4 -14 8 -11 5 3 26 -7 47 -21 21 -14 35 -21
31 -14 -10 15 7 14 23 -1 8 -8 11 -8 8 -2 -4 7 3 12 18 12 14 0 25 -6 25 -12
0 -6 5 -4 10 4 9 13 11 13 20 0 5 -8 10 -10 10 -4 0 6 11 12 25 12 14 0 25 -6
25 -12 0 -8 2 -8 8 0 9 14 43 14 61 0 11 -8 13 -8 8 0 -4 7 2 12 18 12 16 0
22 -5 18 -12 -4 -6 1 -5 11 3 14 12 19 12 26 2 6 -11 9 -11 13 0 4 12 7 11 16
-1 6 -8 11 -10 11 -4 0 6 11 12 25 12 14 0 25 -6 25 -12 0 -8 2 -8 8 0 8 13
71 13 91 0 9 -6 12 -5 7 2 -8 14 34 12 53 -2 11 -8 13 -8 8 0 -4 7 7 11 33 11
26 0 37 -4 33 -11 -4 -6 1 -5 11 3 14 12 19 12 26 2 6 -11 8 -11 12 0 4 12 8
11 23 -1 11 -9 16 -10 11 -3 -4 7 -3 13 1 13 5 0 15 -6 22 -13 10 -8 12 -8 7
0 -8 15 33 14 53 -1 11 -8 13 -8 8 0 -4 7 7 11 33 11 26 0 37 -4 33 -11 -4 -6
1 -5 11 3 14 12 19 12 26 2 6 -11 8 -11 12 0 4 12 8 11 23 -1 11 -9 16 -10 11
-3 -9 17 6 17 23 1 10 -9 12 -9 7 -1 -8 15 33 14 53 -1 11 -8 13 -8 8 0 -9 16
95 15 105 0 5 -8 8 -7 8 1 0 15 69 15 88 0 9 -7 11 -5 6 8 -5 12 -4 16 4 11 6
-3 13 -2 17 4 3 5 15 10 26 10 10 0 19 5 19 11 0 6 7 9 14 6 10 -4 13 -1 9 9
-3 9 1 14 13 14 9 0 14 3 11 7 -4 3 1 12 11 20 9 8 12 12 5 9 -7 -4 -6 6 4 26
9 17 17 47 19 66 1 19 8 38 15 43 8 5 9 9 3 9 -6 0 -11 7 -11 15 0 8 4 12 8 9
4 -2 6 12 5 31 -2 20 0 38 4 40 4 2 6 16 5 30 -2 14 1 25 5 25 5 0 7 9 5 20
-2 11 2 20 8 20 7 0 6 4 -3 10 -11 7 -11 10 -2 10 7 0 11 4 7 9 -7 12 29 33
39 24 3 -3 6 -1 6 5 0 7 5 12 11 12 5 0 7 -6 4 -12 -4 -7 0 -5 8 5 9 11 21 15
32 10 13 -4 16 -3 11 5 -7 12 5 16 32 13 6 -1 12 3 12 9 0 5 9 10 20 10 11 0
20 5 20 12 0 6 3 9 6 5 4 -3 13 1 22 9 8 9 23 13 33 11 10 -3 20 0 23 7 2 6 5
3 5 -7 1 -10 5 -16 10 -13 11 7 53 -29 43 -38 -4 -4 -2 -7 3 -6 28 6 47 -1 42
-14 -4 -11 -1 -13 10 -9 11 4 14 2 9 -5 -5 -8 0 -12 14 -12 12 0 18 -4 15 -10
-3 -5 3 -10 14 -10 12 0 21 -3 21 -8 0 -4 18 -18 39 -32 22 -13 38 -27 36 -30
-2 -3 8 -7 23 -8 14 -1 28 -6 31 -10 7 -9 6 -9 84 2 31 4 57 12 57 18 0 5 5 8
12 6 14 -5 67 44 60 56 -3 5 2 6 12 3 9 -4 15 -3 12 2 -8 12 19 33 29 23 5 -4
5 -1 1 6 -4 7 -1 15 8 18 9 3 13 10 10 15 -3 5 2 9 11 9 10 0 13 5 9 12 -5 8
-2 9 12 4 10 -4 15 -4 11 0 -9 10 13 35 24 28 5 -3 9 -2 8 3 -4 21 2 33 17 33
9 0 12 5 8 12 -5 8 -2 9 9 5 10 -4 16 -2 14 6 -1 7 4 11 11 9 8 -1 11 2 7 8
-3 5 1 13 9 16 9 3 14 10 11 14 -5 8 24 25 38 21 5 -1 6 3 2 9 -3 5 -1 10 4
10 6 0 11 7 11 16 0 10 5 14 16 10 8 -3 12 -2 9 3 -3 5 5 17 17 25 12 9 18 16
13 16 -5 0 0 7 11 15 10 8 16 15 12 15 -4 0 -3 12 3 28 14 33 17 122 5 122 -4
0 -5 7 -2 16 3 8 2 12 -4 9 -6 -3 -10 1 -10 9 0 9 -5 16 -11 16 -5 0 -8 4 -5
9 4 5 3 11 -1 13 -17 7 -62 76 -55 83 4 5 2 5 -4 2 -6 -3 -17 6 -25 21 -8 14
-22 35 -32 45 -10 10 -15 23 -11 29 5 7 3 8 -6 3 -10 -6 -12 -4 -7 8 4 12 2
14 -10 10 -12 -5 -14 -1 -8 15 4 16 2 22 -9 22 -12 0 -13 5 -7 23 5 12 14 21
21 19 6 -1 8 2 5 8 -4 6 0 27 9 46 9 18 23 49 31 67 9 18 17 43 19 54 7 36 26
63 44 65 9 0 22 2 27 3 31 6 122 19 135 19 8 0 18 5 22 11 5 6 8 4 8 -5 0 -10
3 -11 8 -4 4 6 28 14 53 17 26 3 63 13 84 21 20 9 42 13 48 9 6 -4 7 -1 2 7
-5 8 3 23 25 41 18 16 30 29 26 29 -4 0 -2 9 4 20 6 10 11 42 11 70 1 29 6 50
13 50 6 0 5 4 -3 9 -13 8 -13 12 0 27 8 10 9 15 3 11 -7 -4 -11 61 -12 216 -1
250 -1 243 -27 283 -18 28 -86 101 -71 77 5 -9 2 -11 -8 -7 -9 3 -16 10 -16
14 0 4 -8 7 -17 7 -39 0 -54 3 -49 11 2 4 -11 6 -31 4 -20 -3 -33 -1 -30 4 3
5 -19 10 -49 11 -30 2 -64 8 -75 14 -17 8 -20 8 -14 -1 5 -9 1 -9 -16 1 -13 7
-25 12 -26 11 -2 -1 -12 -2 -23 -2 -19 0 -43 36 -44 65 -1 6 -7 16 -14 24 -11
12 -11 15 0 22 11 7 11 9 0 9 -7 0 -10 5 -7 10 3 6 1 10 -6 10 -7 0 -10 3 -6
6 3 4 -1 13 -9 21 -8 8 -12 19 -9 24 4 5 2 9 -3 9 -6 0 -13 7 -16 16 -5 12 -3
14 7 8 7 -5 6 -2 -3 6 -20 19 -32 50 -20 50 6 0 10 7 10 15 0 7 8 19 18 24 9
6 13 11 8 11 -5 0 -3 7 4 15 7 8 16 13 20 10 5 -3 12 0 16 6 4 8 3 9 -4 5 -18
-11 -14 2 11 39 13 19 27 32 31 27 4 -4 6 -2 4 3 -4 14 73 126 83 120 4 -3 5
4 2 15 -3 11 0 27 7 35 7 8 9 15 5 15 -4 0 -1 8 6 17 12 14 12 16 0 9 -11 -7
-13 -1 -9 27 2 20 0 33 -4 31 -4 -3 -8 2 -8 11 0 9 -11 31 -25 49 -14 18 -22
36 -18 40 4 4 -1 4 -11 0 -14 -5 -17 -4 -12 4 4 7 1 12 -7 12 -14 0 -32 27
-29 43 1 4 -4 6 -10 5 -8 -2 -12 5 -10 17 2 15 0 17 -6 6 -8 -11 -13 -10 -31
5 -11 10 -21 24 -21 31 0 7 -7 13 -17 13 -9 0 -13 3 -10 6 7 7 -30 44 -45 44
-4 0 -8 5 -8 11 0 5 6 7 13 3 7 -4 9 -3 4 2 -5 5 -14 9 -20 9 -7 1 -11 7 -9
14 1 7 -1 10 -6 7 -12 -7 -54 38 -45 49 5 4 2 5 -4 1 -7 -4 -13 -2 -13 4 0 6
-4 8 -10 5 -5 -3 -10 1 -10 9 0 9 -7 16 -15 16 -9 0 -20 10 -25 23 -5 12 -9
18 -9 14 -1 -5 -8 -1 -17 7 -8 9 -21 13 -27 9 -6 -4 -8 0 -4 11 5 13 3 15 -12
7 -10 -6 -21 -8 -25 -4 -3 3 -19 6 -36 5 -16 0 -30 4 -30 9 0 6 -7 3 -16 -5
-14 -15 -29 -20 -47 -17 -4 1 -10 -6 -13 -14 -4 -8 -12 -15 -19 -15 -7 0 -15
-3 -17 -7 -4 -9 -65 -53 -73 -53 -3 0 -3 6 1 13 4 7 3 9 -2 4 -5 -5 -9 -12 -9
-16 0 -11 -32 -41 -44 -41 -6 0 -11 -3 -11 -7 0 -11 -60 -44 -70 -38 -4 3 -7
-3 -6 -13 0 -10 -5 -16 -14 -13 -8 2 -21 4 -27 4 -7 0 -13 4 -13 9 0 4 -9 8
-20 8 -11 0 -20 5 -20 11 0 5 -4 8 -9 4 -5 -3 -16 1 -24 9 -8 8 -17 12 -21 9
-3 -4 -6 -1 -6 6 0 7 -4 10 -9 7 -5 -3 -21 1 -37 9 -15 7 -31 12 -36 9 -4 -3
-8 -1 -8 3 0 5 -10 9 -21 10 -27 2 -27 2 -32 44 -2 20 -8 42 -12 49 -5 8 -4
11 2 7 5 -3 10 0 10 8 0 8 -5 11 -10 8 -6 -3 -8 9 -5 31 2 20 0 36 -5 36 -5 0
-7 11 -5 25 3 13 1 26 -3 27 -5 2 -10 28 -11 59 -2 32 -7 54 -12 51 -5 -3 -6
2 -3 12 4 9 3 15 -2 12 -5 -3 -12 1 -15 10 -4 10 -2 13 7 8 6 -4 -7 11 -30 34
-23 23 -54 44 -68 48 -15 4 -22 11 -18 18 4 7 1 6 -9 -1 -8 -7 -18 -10 -22 -6
-4 4 -23 6 -43 4 -22 -2 -39 2 -44 11 -7 10 -9 10 -9 1 0 -7 -10 -13 -23 -13
-13 0 -29 6 -36 13 -11 10 -12 9 -6 -1 5 -10 0 -13 -21 -10 -18 2 -28 8 -26
16 1 8 -2 11 -8 7 -6 -3 -8 -11 -5 -16 9 -14 -19 -11 -34 4 -9 7 -11 8 -7 1 4
-8 -6 -12 -29 -12 -24 0 -33 4 -28 12 5 7 2 7 -8 -1 -12 -10 -18 -10 -29 0
-10 9 -11 9 -6 0 4 -7 3 -13 -1 -13 -5 0 -15 6 -22 13 -8 7 -11 7 -8 1 8 -14
-90 -14 -112 0 -9 6 -12 5 -8 -1 8 -13 -52 -12 -72 1 -9 6 -12 5 -8 -1 8 -13
-52 -12 -72 1 -9 6 -12 5 -8 -1 8 -13 -52 -12 -72 1 -10 6 -12 5 -7 -2 10 -16
-7 -15 -23 1 -11 10 -13 10 -7 0 4 -8 2 -13 -6 -13 -8 0 -20 6 -27 13 -9 7
-11 8 -7 1 4 -8 -6 -12 -29 -12 -24 0 -33 4 -28 12 5 7 2 7 -8 -1 -12 -10 -18
-10 -29 0 -10 9 -11 9 -6 0 4 -8 2 -13 -6 -13 -8 0 -20 6 -27 13 -11 10 -12 9
-6 -1 5 -10 0 -13 -21 -10 -17 2 -28 8 -26 16 1 6 0 12 -3 12 -3 0 -6 -3 -6
-7z"/>
</g>
</svg>
